<svg width="384" height="512" viewBox="0 0 384 512" fill="none" xmlns="http://www.w3.org/2000/svg">
<g clip-path="url(#clip0_1632_6)">
<path d="M214.599 374.6C202.099 387.1 181.799 387.1 169.299 374.6L9.29921 214.6C-3.20079 202.1 -3.20079 181.8 9.29921 169.3C21.7992 156.8 42.0992 156.8 54.5992 169.3L191.999 306.7L329.399 169.4C341.899 156.9 362.199 156.9 374.699 169.4C387.199 181.9 387.199 202.2 374.699 214.7L214.699 374.7L214.599 374.6Z" fill="black"/>
<path d="M214.599 374.6C202.099 387.1 181.799 387.1 169.299 374.6L9.29921 214.6C-3.20079 202.1 -3.20079 181.8 9.29921 169.3C21.7992 156.8 42.0992 156.8 54.5992 169.3L191.999 306.7L329.399 169.4C341.899 156.9 362.199 156.9 374.699 169.4C387.199 181.9 387.199 202.2 374.699 214.7L214.699 374.7L214.599 374.6Z" fill="black"/>
</g>
<defs>
<clipPath id="clip0_1632_6">
<rect width="384" height="512" fill="white" transform="translate(384 512) rotate(-180)"/>
</clipPath>
</defs>
</svg>
